<mxfile host="app.diagrams.net" modified="2023-03-03T17:54:58.702Z" agent="5.0 (Macintosh; Intel Mac OS X 10_15_7) AppleWebKit/537.36 (KHTML, like Gecko) Chrome/110.0.0.0 Safari/537.36" etag="z4AwvN9h2QRkLPw6XOu0" version="21.0.2" type="github">
  <diagram name="Page-1" id="R9wjMzmz4tRbW6NVOSTy">
    <mxGraphModel dx="1662" dy="900" grid="1" gridSize="10" guides="1" tooltips="1" connect="1" arrows="1" fold="1" page="1" pageScale="1" pageWidth="850" pageHeight="1100" math="0" shadow="0">
      <root>
        <mxCell id="0" />
        <mxCell id="1" parent="0" />
        <mxCell id="0Whx0xgPv8gQWyR4Lrbi-156" value="" style="whiteSpace=wrap;html=1;aspect=fixed;fillColor=#fffff2;strokeWidth=0;" vertex="1" parent="1">
          <mxGeometry width="700" height="700" as="geometry" />
        </mxCell>
        <mxCell id="0Whx0xgPv8gQWyR4Lrbi-148" value="" style="group;strokeWidth=5;fillColor=#FFFFF2;strokeColor=#657D5E;container=0;" vertex="1" connectable="0" parent="1">
          <mxGeometry x="50" y="50" width="600" height="600" as="geometry" />
        </mxCell>
        <mxCell id="0Whx0xgPv8gQWyR4Lrbi-77" value="" style="whiteSpace=wrap;html=1;aspect=fixed;fillColor=#657D5E;strokeWidth=0;container=0;" vertex="1" parent="1">
          <mxGeometry x="125" y="50" width="75" height="75" as="geometry" />
        </mxCell>
        <mxCell id="0Whx0xgPv8gQWyR4Lrbi-79" value="" style="whiteSpace=wrap;html=1;aspect=fixed;fillColor=#657D5E;strokeWidth=0;container=0;" vertex="1" parent="1">
          <mxGeometry x="275" y="50" width="75" height="75" as="geometry" />
        </mxCell>
        <mxCell id="0Whx0xgPv8gQWyR4Lrbi-81" value="" style="whiteSpace=wrap;html=1;aspect=fixed;fillColor=#657D5E;strokeWidth=0;container=0;" vertex="1" parent="1">
          <mxGeometry x="425" y="50" width="75" height="75" as="geometry" />
        </mxCell>
        <mxCell id="0Whx0xgPv8gQWyR4Lrbi-83" value="" style="whiteSpace=wrap;html=1;aspect=fixed;fillColor=#657D5E;strokeWidth=0;container=0;" vertex="1" parent="1">
          <mxGeometry x="575" y="50" width="75" height="75" as="geometry" />
        </mxCell>
        <mxCell id="0Whx0xgPv8gQWyR4Lrbi-86" value="" style="whiteSpace=wrap;html=1;aspect=fixed;fillColor=#657D5E;strokeWidth=0;container=0;" vertex="1" parent="1">
          <mxGeometry x="50" y="125" width="75" height="75" as="geometry" />
        </mxCell>
        <mxCell id="0Whx0xgPv8gQWyR4Lrbi-88" value="" style="whiteSpace=wrap;html=1;aspect=fixed;fillColor=#657D5E;strokeWidth=0;container=0;" vertex="1" parent="1">
          <mxGeometry x="200" y="125" width="75" height="75" as="geometry" />
        </mxCell>
        <mxCell id="0Whx0xgPv8gQWyR4Lrbi-90" value="" style="whiteSpace=wrap;html=1;aspect=fixed;fillColor=#657D5E;strokeWidth=0;container=0;" vertex="1" parent="1">
          <mxGeometry x="350" y="125" width="75" height="75" as="geometry" />
        </mxCell>
        <mxCell id="0Whx0xgPv8gQWyR4Lrbi-92" value="" style="whiteSpace=wrap;html=1;aspect=fixed;fillColor=#657D5E;strokeWidth=0;container=0;" vertex="1" parent="1">
          <mxGeometry x="500" y="125" width="75" height="75" as="geometry" />
        </mxCell>
        <mxCell id="0Whx0xgPv8gQWyR4Lrbi-95" value="" style="whiteSpace=wrap;html=1;aspect=fixed;fillColor=#657D5E;strokeWidth=0;container=0;" vertex="1" parent="1">
          <mxGeometry x="125" y="200" width="75" height="75" as="geometry" />
        </mxCell>
        <mxCell id="0Whx0xgPv8gQWyR4Lrbi-97" value="" style="whiteSpace=wrap;html=1;aspect=fixed;fillColor=#657D5E;strokeWidth=0;container=0;" vertex="1" parent="1">
          <mxGeometry x="275" y="200" width="75" height="75" as="geometry" />
        </mxCell>
        <mxCell id="0Whx0xgPv8gQWyR4Lrbi-99" value="" style="whiteSpace=wrap;html=1;aspect=fixed;fillColor=#657D5E;strokeWidth=0;container=0;" vertex="1" parent="1">
          <mxGeometry x="425" y="200" width="75" height="75" as="geometry" />
        </mxCell>
        <mxCell id="0Whx0xgPv8gQWyR4Lrbi-101" value="" style="whiteSpace=wrap;html=1;aspect=fixed;fillColor=#657D5E;strokeWidth=0;container=0;" vertex="1" parent="1">
          <mxGeometry x="575" y="200" width="75" height="75" as="geometry" />
        </mxCell>
        <mxCell id="0Whx0xgPv8gQWyR4Lrbi-104" value="" style="whiteSpace=wrap;html=1;aspect=fixed;fillColor=#657D5E;strokeWidth=0;container=0;" vertex="1" parent="1">
          <mxGeometry x="50" y="275" width="75" height="75" as="geometry" />
        </mxCell>
        <mxCell id="0Whx0xgPv8gQWyR4Lrbi-106" value="" style="whiteSpace=wrap;html=1;aspect=fixed;fillColor=#657D5E;strokeWidth=0;container=0;" vertex="1" parent="1">
          <mxGeometry x="200" y="275" width="75" height="75" as="geometry" />
        </mxCell>
        <mxCell id="0Whx0xgPv8gQWyR4Lrbi-108" value="" style="whiteSpace=wrap;html=1;aspect=fixed;fillColor=#657D5E;strokeWidth=0;container=0;" vertex="1" parent="1">
          <mxGeometry x="350" y="275" width="75" height="75" as="geometry" />
        </mxCell>
        <mxCell id="0Whx0xgPv8gQWyR4Lrbi-110" value="" style="whiteSpace=wrap;html=1;aspect=fixed;fillColor=#657D5E;strokeWidth=0;container=0;" vertex="1" parent="1">
          <mxGeometry x="500" y="275" width="75" height="75" as="geometry" />
        </mxCell>
        <mxCell id="0Whx0xgPv8gQWyR4Lrbi-113" value="" style="whiteSpace=wrap;html=1;aspect=fixed;fillColor=#657D5E;strokeWidth=0;container=0;" vertex="1" parent="1">
          <mxGeometry x="125" y="350" width="75" height="75" as="geometry" />
        </mxCell>
        <mxCell id="0Whx0xgPv8gQWyR4Lrbi-115" value="" style="whiteSpace=wrap;html=1;aspect=fixed;fillColor=#657D5E;strokeWidth=0;container=0;" vertex="1" parent="1">
          <mxGeometry x="275" y="350" width="75" height="75" as="geometry" />
        </mxCell>
        <mxCell id="0Whx0xgPv8gQWyR4Lrbi-117" value="" style="whiteSpace=wrap;html=1;aspect=fixed;fillColor=#657D5E;strokeWidth=0;container=0;" vertex="1" parent="1">
          <mxGeometry x="425" y="350" width="75" height="75" as="geometry" />
        </mxCell>
        <mxCell id="0Whx0xgPv8gQWyR4Lrbi-119" value="" style="whiteSpace=wrap;html=1;aspect=fixed;fillColor=#657D5E;strokeWidth=0;strokeColor=#657D5E;container=0;" vertex="1" parent="1">
          <mxGeometry x="575" y="350" width="75" height="75" as="geometry" />
        </mxCell>
        <mxCell id="0Whx0xgPv8gQWyR4Lrbi-122" value="" style="whiteSpace=wrap;html=1;aspect=fixed;fillColor=#657D5E;strokeWidth=0;container=0;" vertex="1" parent="1">
          <mxGeometry x="50" y="425" width="75" height="75" as="geometry" />
        </mxCell>
        <mxCell id="0Whx0xgPv8gQWyR4Lrbi-124" value="" style="whiteSpace=wrap;html=1;aspect=fixed;fillColor=#657D5E;strokeWidth=0;container=0;" vertex="1" parent="1">
          <mxGeometry x="200" y="425" width="75" height="75" as="geometry" />
        </mxCell>
        <mxCell id="0Whx0xgPv8gQWyR4Lrbi-126" value="" style="whiteSpace=wrap;html=1;aspect=fixed;fillColor=#657D5E;strokeWidth=0;container=0;" vertex="1" parent="1">
          <mxGeometry x="350" y="425" width="75" height="75" as="geometry" />
        </mxCell>
        <mxCell id="0Whx0xgPv8gQWyR4Lrbi-128" value="" style="whiteSpace=wrap;html=1;aspect=fixed;fillColor=#657D5E;strokeWidth=0;container=0;" vertex="1" parent="1">
          <mxGeometry x="500" y="425" width="75" height="75" as="geometry" />
        </mxCell>
        <mxCell id="0Whx0xgPv8gQWyR4Lrbi-131" value="" style="whiteSpace=wrap;html=1;aspect=fixed;fillColor=#657D5E;strokeWidth=0;container=0;" vertex="1" parent="1">
          <mxGeometry x="125" y="500" width="75" height="75" as="geometry" />
        </mxCell>
        <mxCell id="0Whx0xgPv8gQWyR4Lrbi-133" value="" style="whiteSpace=wrap;html=1;aspect=fixed;fillColor=#657D5E;strokeWidth=0;container=0;" vertex="1" parent="1">
          <mxGeometry x="275" y="500" width="75" height="75" as="geometry" />
        </mxCell>
        <mxCell id="0Whx0xgPv8gQWyR4Lrbi-135" value="" style="whiteSpace=wrap;html=1;aspect=fixed;fillColor=#657D5E;strokeWidth=0;container=0;" vertex="1" parent="1">
          <mxGeometry x="425" y="500" width="75" height="75" as="geometry" />
        </mxCell>
        <mxCell id="0Whx0xgPv8gQWyR4Lrbi-137" value="" style="whiteSpace=wrap;html=1;aspect=fixed;fillColor=#657D5E;strokeWidth=0;container=0;" vertex="1" parent="1">
          <mxGeometry x="575" y="500" width="75" height="75" as="geometry" />
        </mxCell>
        <mxCell id="0Whx0xgPv8gQWyR4Lrbi-140" value="" style="whiteSpace=wrap;html=1;aspect=fixed;fillColor=#657D5E;strokeWidth=0;container=0;" vertex="1" parent="1">
          <mxGeometry x="50" y="575" width="75" height="75" as="geometry" />
        </mxCell>
        <mxCell id="0Whx0xgPv8gQWyR4Lrbi-142" value="" style="whiteSpace=wrap;html=1;aspect=fixed;fillColor=#657D5E;strokeWidth=0;container=0;" vertex="1" parent="1">
          <mxGeometry x="200" y="575" width="75" height="75" as="geometry" />
        </mxCell>
        <mxCell id="0Whx0xgPv8gQWyR4Lrbi-144" value="" style="whiteSpace=wrap;html=1;aspect=fixed;fillColor=#657D5E;strokeWidth=0;container=0;" vertex="1" parent="1">
          <mxGeometry x="350" y="575" width="75" height="75" as="geometry" />
        </mxCell>
        <mxCell id="0Whx0xgPv8gQWyR4Lrbi-146" value="" style="whiteSpace=wrap;html=1;aspect=fixed;fillColor=#657D5E;strokeWidth=0;container=0;" vertex="1" parent="1">
          <mxGeometry x="500" y="575" width="75" height="75" as="geometry" />
        </mxCell>
      </root>
    </mxGraphModel>
  </diagram>
</mxfile>
